<svg width="1920" height="1080" viewBox="0 0 1920 1080" xmlns="http://www.w3.org/2000/svg" role="img" aria-label="Dork Ripper disclaimer graphic">
  <defs>
    <linearGradient id="bg" x1="0" y1="0" x2="1" y2="1"><stop offset="0" stop-color="#02070d"/><stop offset="1" stop-color="#02100b"/></linearGradient>
    <linearGradient id="title" x1="0" y1="0" x2="1" y2="0"><stop offset="0" stop-color="#20e7ff"/><stop offset="1" stop-color="#72ff3a"/></linearGradient>
    <filter id="glow"><feGaussianBlur stdDeviation="6" result="b"/><feMerge><feMergeNode in="b"/><feMergeNode in="SourceGraphic"/></feMerge></filter>
    <pattern id="grid" width="44" height="44" patternUnits="userSpaceOnUse"><path d="M44 0H0V44" fill="none" stroke="#0f3340" stroke-width="1" opacity="0.28"/></pattern>
    <linearGradient id="panel" x1="0" y1="0" x2="1" y2="1"><stop offset="0" stop-color="#071c28"/><stop offset="1" stop-color="#02080b"/></linearGradient>
  </defs>
  <rect width="1920" height="1080" fill="url(#bg)"/><rect width="1920" height="1080" fill="url(#grid)"/>
  <g opacity="0.45" stroke="#1feaff" stroke-width="2" fill="none"><path d="M95 185 C300 90 420 275 610 160 S850 145 960 105 S1315 90 1470 185 S1720 120 1830 210"/><path d="M110 895 H590 L630 855 H1290 L1330 895 H1810"/></g>
  <g transform="translate(205 280)" filter="url(#glow)">
    <path d="M190 0 L340 62 V225 C340 312 260 386 190 420 C120 386 40 312 40 225 V62Z" fill="#061d29" stroke="#20e7ff" stroke-width="12"/>
    <path d="M142 185 V132 C142 105 163 82 190 82 C217 82 238 105 238 132 V185" fill="none" stroke="#72ff3a" stroke-width="15" stroke-linecap="round"/>
    <rect x="124" y="178" width="132" height="104" rx="18" fill="#55f72e" opacity="0.92"/>
    <path d="M158 229 l22 22 l48 -60" fill="none" stroke="#06202b" stroke-width="15" stroke-linecap="round" stroke-linejoin="round"/>
  </g>
  <text x="1125" y="320" text-anchor="middle" font-family="Orbitron, Rajdhani, Segoe UI, Arial, sans-serif" font-size="128" font-weight="900" fill="url(#title)" filter="url(#glow)">Disclaimer</text>
  <text x="1125" y="425" text-anchor="middle" font-family="Segoe UI, Arial, sans-serif" font-size="39" font-weight="700" fill="#f2fbff">For educational, research, and authorized security assessment use only.</text>
  <g font-family="Segoe UI, Arial, sans-serif" font-size="31" font-weight="750" fill="#f2fbff">
    <g transform="translate(500 565)"><rect width="400" height="170" rx="20" fill="url(#panel)" stroke="#20e7ff" stroke-width="3"/><circle cx="78" cy="85" r="45" fill="none" stroke="#20e7ff" stroke-width="6"/><path d="M78 43 v84 M36 85 h84" stroke="#20e7ff" stroke-width="4"/><text x="150" y="60">Only test</text><text x="150" y="98">systems you own</text><text x="150" y="136">or have permission</text></g>
    <g transform="translate(960 565)"><rect width="400" height="170" rx="20" fill="url(#panel)" stroke="#72ff3a" stroke-width="3"/><path d="M55 53 h80 M95 37 v97 M50 72 l-24 45 h48z M140 72 l-24 45 h48z" fill="none" stroke="#72ff3a" stroke-width="6" stroke-linejoin="round"/><text x="165" y="60">Respect privacy,</text><text x="165" y="98">laws, and platform</text><text x="165" y="136">policies</text></g>
    <g transform="translate(1420 565)"><rect width="400" height="170" rx="20" fill="url(#panel)" stroke="#ffc400" stroke-width="3"/><path d="M95 35 L140 55 V95 C140 128 112 147 95 154 C78 147 50 128 50 95 V55Z" fill="none" stroke="#ffc400" stroke-width="7"/><path d="M70 91 l20 20 l42 -54" fill="none" stroke="#ffc400" stroke-width="8" stroke-linecap="round"/><text x="170" y="73">Use responsibly</text><text x="170" y="114">and ethically</text></g>
  </g>
  <g transform="translate(360 865)" filter="url(#glow)"><rect width="1200" height="86" rx="43" fill="#03111a" stroke="#20e7ff" stroke-width="2" opacity="0.9"/><text x="600" y="56" text-anchor="middle" font-family="Segoe UI, Arial, sans-serif" font-size="42" font-weight="850" fill="#e9fbff"><tspan fill="#20e7ff">Stay ethical.</tspan>  •  <tspan fill="#72ff3a">Stay legal.</tspan>  •  <tspan fill="#ffc400">Stay authorized.</tspan></text></g>
</svg>
