<svg width="1920" height="1080" viewBox="0 0 1920 1080" xmlns="http://www.w3.org/2000/svg" role="img" aria-label="Dork Ripper categories graphic">
  <defs>
    <linearGradient id="bg" x1="0" y1="0" x2="1" y2="1"><stop offset="0" stop-color="#02070d"/><stop offset="1" stop-color="#030b0b"/></linearGradient>
    <linearGradient id="title" x1="0" y1="0" x2="1" y2="0"><stop offset="0" stop-color="#20e7ff"/><stop offset="1" stop-color="#72ff3a"/></linearGradient>
    <filter id="glow"><feGaussianBlur stdDeviation="5" result="b"/><feMerge><feMergeNode in="b"/><feMergeNode in="SourceGraphic"/></feMerge></filter>
    <pattern id="grid" width="44" height="44" patternUnits="userSpaceOnUse"><path d="M44 0H0V44" fill="none" stroke="#0f3340" stroke-width="1" opacity="0.28"/></pattern>
    <linearGradient id="panel" x1="0" y1="0" x2="1" y2="1"><stop offset="0" stop-color="#091a25"/><stop offset="1" stop-color="#020509"/></linearGradient>
  </defs>
  <rect width="1920" height="1080" fill="url(#bg)"/><rect width="1920" height="1080" fill="url(#grid)"/>
  <g opacity="0.45" stroke="#1feaff" stroke-width="2" fill="none"><path d="M80 150 C280 70 380 250 560 130 S850 160 960 95 S1320 90 1460 175 S1720 120 1840 205"/><path d="M120 930 H560 L610 880 H1310 L1360 930 H1800"/></g>
  <text x="960" y="210" text-anchor="middle" font-family="Orbitron, Rajdhani, Segoe UI, Arial, sans-serif" font-size="118" font-weight="900" fill="url(#title)" filter="url(#glow)">Dork Ripper</text>
  <text x="960" y="305" text-anchor="middle" font-family="Segoe UI, Arial, sans-serif" font-size="54" font-weight="900" letter-spacing="16" fill="#dffcff">CATEGORIES</text>
  <g id="cards" font-family="Segoe UI, Arial, sans-serif" font-size="30" font-weight="800" fill="#f3fdff">
    <g transform="translate(95 390)"><rect width="405" height="110" rx="18" fill="url(#panel)" stroke="#20e7ff" stroke-width="3"/><text x="132" y="48">Admin &amp;</text><text x="132" y="84">Login Panels</text><rect x="37" y="30" width="64" height="46" rx="8" fill="none" stroke="#20e7ff" stroke-width="6"/><circle cx="69" cy="51" r="11" fill="none" stroke="#20e7ff" stroke-width="5"/></g>
    <g transform="translate(530 390)"><rect width="405" height="110" rx="18" fill="url(#panel)" stroke="#72ff3a" stroke-width="3"/><text x="132" y="48">API &amp; Web</text><text x="132" y="84">Services</text><circle cx="69" cy="55" r="36" fill="none" stroke="#72ff3a" stroke-width="6"/><text x="69" y="66" text-anchor="middle" font-size="27" fill="#72ff3a">API</text></g>
    <g transform="translate(965 390)"><rect width="405" height="110" rx="18" fill="url(#panel)" stroke="#ffc400" stroke-width="3"/><text x="132" y="48">Bug Bounty &amp;</text><text x="132" y="84">Disclosure</text><path d="M68 18 L105 35 V67 C105 92 83 104 68 110 C53 104 31 92 31 67 V35Z" transform="translate(0 -9)" fill="none" stroke="#ffc400" stroke-width="6"/><circle cx="68" cy="52" r="12" fill="none" stroke="#ffc400" stroke-width="5"/></g>
    <g transform="translate(1400 390)"><rect width="405" height="110" rx="18" fill="url(#panel)" stroke="#20e7ff" stroke-width="3"/><text x="132" y="48">Cameras, IoT</text><text x="132" y="84">&amp; SCADA</text><path d="M28 48 L105 24 L118 56 L40 80Z" fill="none" stroke="#20e7ff" stroke-width="6"/><path d="M48 80 v32" stroke="#20e7ff" stroke-width="6"/></g>
    <g transform="translate(95 535)"><rect width="405" height="110" rx="18" fill="url(#panel)" stroke="#72ff3a" stroke-width="3"/><text x="132" y="65">Cloud Services</text><path d="M35 71 C30 47 50 35 67 42 C78 18 112 25 116 55 C136 55 144 83 122 91 H46 C37 90 32 82 35 71Z" fill="none" stroke="#72ff3a" stroke-width="6"/></g>
    <g transform="translate(530 535)"><rect width="405" height="110" rx="18" fill="url(#panel)" stroke="#20e7ff" stroke-width="3"/><text x="132" y="48">Credentials &amp;</text><text x="132" y="84">Secrets</text><circle cx="58" cy="50" r="25" fill="none" stroke="#20e7ff" stroke-width="6"/><path d="M78 70 L110 102 M96 88 h24" stroke="#20e7ff" stroke-width="6" stroke-linecap="round"/></g>
    <g transform="translate(965 535)"><rect width="405" height="110" rx="18" fill="url(#panel)" stroke="#b272ff" stroke-width="3"/><text x="132" y="48">Cross-Site</text><text x="132" y="84">Scripting</text><text x="65" y="70" text-anchor="middle" font-family="Consolas, monospace" font-size="58" fill="#b272ff">&lt;/&gt;</text></g>
    <g transform="translate(1400 535)"><rect width="405" height="110" rx="18" fill="url(#panel)" stroke="#72ff3a" stroke-width="3"/><text x="132" y="48">Cryptocurrency &amp;</text><text x="132" y="84">Blockchain</text><circle cx="70" cy="55" r="28" fill="none" stroke="#72ff3a" stroke-width="6"/><text x="70" y="68" text-anchor="middle" font-size="36" fill="#72ff3a">₿</text></g>
    <g transform="translate(95 680)"><rect width="405" height="110" rx="18" fill="url(#panel)" stroke="#ffc400" stroke-width="3"/><text x="132" y="48">Exposed</text><text x="132" y="84">Directories</text><path d="M32 39 h56 l18 18 h20 v48 h-94z" fill="none" stroke="#ffc400" stroke-width="6"/></g>
    <g transform="translate(530 680)"><rect width="405" height="110" rx="18" fill="url(#panel)" stroke="#20e7ff" stroke-width="3"/><text x="132" y="65">Databases</text><ellipse cx="67" cy="40" rx="40" ry="16" fill="none" stroke="#20e7ff" stroke-width="6"/><path d="M27 40 v48 c0 21 80 21 80 0 v-48" fill="none" stroke="#20e7ff" stroke-width="6"/></g>
    <g transform="translate(965 680)"><rect width="405" height="110" rx="18" fill="url(#panel)" stroke="#72ff3a" stroke-width="3"/><text x="132" y="48">Files &amp;</text><text x="132" y="84">Documents</text><path d="M45 22 h48 l24 24 v62 h-72z" fill="none" stroke="#72ff3a" stroke-width="6"/><path d="M93 22 v27 h24" fill="none" stroke="#72ff3a" stroke-width="6"/></g>
    <g transform="translate(1400 680)"><rect width="405" height="110" rx="18" fill="url(#panel)" stroke="#b272ff" stroke-width="3"/><text x="132" y="48">ExploitDB</text><text x="132" y="84">GHDB Archive</text><rect x="35" y="25" width="80" height="64" rx="8" fill="none" stroke="#b272ff" stroke-width="6"/><text x="75" y="69" text-anchor="middle" font-family="Consolas, monospace" font-size="36" fill="#b272ff">&lt;/&gt;</text></g>
  </g>
  <g transform="translate(275 885)" filter="url(#glow)"><rect width="1370" height="84" rx="42" fill="#03111a" stroke="#20e7ff" stroke-width="2" opacity="0.9"/><text x="685" y="54" text-anchor="middle" font-family="Segoe UI, Arial, sans-serif" font-size="38" font-weight="800" fill="#e9fbff"><tspan fill="#20e7ff">12,000+</tspan> dorks organized for faster research workflows</text></g>
</svg>
